<svg xmlns="http://www.w3.org/2000/svg" xmlns:xlink="http://www.w3.org/1999/xlink" width="200" zoomAndPan="magnify" viewBox="0 0 150 149.999998" height="200" preserveAspectRatio="xMidYMid meet" version="1.0"><defs><g/></defs><g fill="#ffffff" fill-opacity="1"><g transform="translate(10.186841, 93.749997)"><g><path d="M 86.546875 -48.359375 C 86.835938 -48.109375 87.097656 -47.828125 87.328125 -47.515625 C 87.566406 -47.210938 87.722656 -46.847656 87.796875 -46.421875 C 87.867188 -45.953125 87.703125 -45.597656 87.296875 -45.359375 C 87.046875 -45.234375 86.800781 -45.210938 86.5625 -45.296875 C 86.332031 -45.390625 86.164062 -45.570312 86.0625 -45.84375 C 85.789062 -46.570312 85.382812 -47.148438 84.84375 -47.578125 C 84.300781 -48.015625 83.710938 -48.394531 83.078125 -48.71875 C 81.671875 -49.457031 80.21875 -50.054688 78.71875 -50.515625 C 77.226562 -50.984375 75.722656 -51.390625 74.203125 -51.734375 C 71.671875 -52.273438 68.296875 -52.625 64.078125 -52.78125 C 59.859375 -52.945312 55.160156 -52.882812 49.984375 -52.59375 C 44.816406 -52.3125 39.523438 -51.757812 34.109375 -50.9375 C 28.691406 -50.113281 23.503906 -48.984375 18.546875 -47.546875 C 13.597656 -46.117188 9.25 -44.332031 5.5 -42.1875 C 1.75 -40.050781 -1.039062 -37.53125 -2.875 -34.625 C -4.414062 -32.101562 -4.722656 -29.441406 -3.796875 -26.640625 C -3.128906 -24.710938 -2.171875 -22.960938 -0.921875 -21.390625 C 0.941406 -19.035156 3.007812 -16.875 5.28125 -14.90625 C 7.1875 -13.164062 9.113281 -11.425781 11.0625 -9.6875 C 12.945312 -8.007812 14.835938 -6.3125 16.734375 -4.59375 C 18.847656 -2.644531 20.925781 -0.675781 22.96875 1.3125 C 23.15625 1.5 23.351562 1.679688 23.5625 1.859375 C 24.664062 2.890625 25.632812 4.03125 26.46875 5.28125 C 27.332031 6.707031 27.5 7.8125 26.96875 8.59375 C 26.4375 9.382812 25.425781 9.921875 23.9375 10.203125 C 22.457031 10.484375 20.734375 10.566406 18.765625 10.453125 C 16.796875 10.347656 14.8125 10.101562 12.8125 9.71875 C 10.820312 9.332031 9.050781 8.875 7.5 8.34375 C 5.957031 7.8125 4.867188 7.257812 4.234375 6.6875 C 2.960938 5.5 2.878906 4.25 3.984375 2.9375 C 5.179688 1.582031 6.640625 0.597656 8.359375 -0.015625 C 10.847656 -0.972656 13.367188 -1.050781 15.921875 -0.25 C 16.410156 -0.0703125 16.878906 0.160156 17.328125 0.453125 C 17.367188 0.472656 17.40625 0.5 17.4375 0.53125 C 17.5625 0.601562 17.644531 0.703125 17.6875 0.828125 C 17.738281 0.960938 17.71875 1.109375 17.625 1.265625 C 17.425781 1.515625 17.179688 1.585938 16.890625 1.484375 C 16.609375 1.390625 16.34375 1.269531 16.09375 1.125 C 14.332031 0.238281 12.519531 0.0507812 10.65625 0.5625 C 8.789062 1.082031 7.21875 2.101562 5.9375 3.625 C 5.375 4.351562 5.34375 4.992188 5.84375 5.546875 C 6.34375 6.109375 7.109375 6.582031 8.140625 6.96875 C 9.179688 7.351562 10.222656 7.648438 11.265625 7.859375 C 12.304688 8.078125 13.085938 8.226562 13.609375 8.3125 C 13.703125 8.3125 13.773438 8.320312 13.828125 8.34375 C 13.921875 8.34375 14.039062 8.351562 14.1875 8.375 C 14.84375 8.519531 15.742188 8.671875 16.890625 8.828125 C 18.035156 8.992188 19.21875 9.109375 20.4375 9.171875 C 21.65625 9.234375 22.695312 9.148438 23.5625 8.921875 C 24.4375 8.703125 24.929688 8.273438 25.046875 7.640625 C 25.160156 7.003906 24.675781 6.0625 23.59375 4.8125 C 22.4375 3.476562 21.21875 2.1875 19.9375 0.9375 C 16.738281 -2.15625 13.460938 -5.15625 10.109375 -8.0625 C 8.898438 -9.144531 7.691406 -10.226562 6.484375 -11.3125 C 4.472656 -13.113281 2.492188 -14.96875 0.546875 -16.875 C -1.242188 -18.613281 -2.828125 -20.53125 -4.203125 -22.625 C -5.179688 -24.132812 -5.867188 -25.769531 -6.265625 -27.53125 C -6.859375 -30.394531 -6.328125 -33.046875 -4.671875 -35.484375 C -2.859375 -38.210938 -0.234375 -40.625 3.203125 -42.71875 C 6.640625 -44.820312 10.625 -46.613281 15.15625 -48.09375 C 19.695312 -49.582031 24.53125 -50.785156 29.65625 -51.703125 C 34.78125 -52.628906 39.957031 -53.285156 45.1875 -53.671875 C 50.425781 -54.054688 55.445312 -54.1875 60.25 -54.0625 C 65.050781 -53.9375 69.394531 -53.570312 73.28125 -52.96875 C 77.175781 -52.375 80.367188 -51.546875 82.859375 -50.484375 C 84.179688 -49.960938 85.410156 -49.253906 86.546875 -48.359375 Z M 86.546875 -48.359375 "/></g></g></g><g fill="#ffffff" fill-opacity="1"><g transform="translate(34.874023, 93.749997)"><g><path d="M 35.5 -13.625 C 35.625 -13.332031 35.695312 -13.023438 35.71875 -12.703125 C 35.789062 -11.367188 35.664062 -9.890625 35.34375 -8.265625 C 35.019531 -6.648438 34.472656 -5.054688 33.703125 -3.484375 C 32.929688 -1.910156 31.914062 -0.566406 30.65625 0.546875 C 29.40625 1.671875 27.898438 2.363281 26.140625 2.625 C 23.617188 3 21.46875 2.582031 19.6875 1.375 C 18.601562 0.613281 17.734375 -0.328125 17.078125 -1.453125 C 16.828125 -1.847656 16.578125 -2.257812 16.328125 -2.6875 C 16.210938 -2.875 16.078125 -3.078125 15.921875 -3.296875 C 15.304688 -3.003906 14.75 -2.625 14.25 -2.15625 C 14.082031 -2.007812 13.914062 -1.878906 13.75 -1.765625 C 13.71875 -1.734375 13.679688 -1.691406 13.640625 -1.640625 C 12.285156 -0.535156 10.859375 0.476562 9.359375 1.40625 C 7.765625 2.34375 6.171875 2.757812 4.578125 2.65625 C 3.203125 2.5625 2.226562 2.070312 1.65625 1.1875 C 1.082031 0.300781 1.019531 -0.835938 1.46875 -2.234375 C 1.738281 -3.085938 2.125 -3.894531 2.625 -4.65625 C 3.132812 -5.425781 3.695312 -6.171875 4.3125 -6.890625 C 5.21875 -7.929688 6.179688 -8.925781 7.203125 -9.875 C 8.222656 -10.832031 9.273438 -11.765625 10.359375 -12.671875 C 11.296875 -13.453125 12.253906 -14.207031 13.234375 -14.9375 C 13.953125 -15.46875 14.332031 -16.113281 14.375 -16.875 C 14.625 -19.332031 15.15625 -21.8125 15.96875 -24.3125 C 16.5 -26.03125 17.296875 -27.695312 18.359375 -29.3125 C 20.171875 -32.050781 22.53125 -33.34375 25.4375 -33.1875 C 26.882812 -33.164062 28.113281 -32.765625 29.125 -31.984375 C 30.914062 -30.453125 31.035156 -28.394531 29.484375 -25.8125 C 28.773438 -24.769531 27.925781 -23.789062 26.9375 -22.875 C 26.007812 -21.988281 25.039062 -21.148438 24.03125 -20.359375 C 23.019531 -19.578125 22 -18.816406 20.96875 -18.078125 C 20.851562 -17.984375 20.734375 -17.898438 20.609375 -17.828125 C 19.671875 -17.128906 18.75 -16.441406 17.84375 -15.765625 C 17.445312 -15.515625 17.234375 -15.207031 17.203125 -14.84375 C 17.179688 -14.519531 17.171875 -14.203125 17.171875 -13.890625 C 17.148438 -12.910156 17.171875 -11.941406 17.234375 -10.984375 C 17.296875 -10.035156 17.472656 -9.132812 17.765625 -8.28125 C 17.796875 -8.257812 17.832031 -8.234375 17.875 -8.203125 C 17.894531 -8.179688 17.90625 -8.171875 17.90625 -8.171875 C 18.476562 -8.460938 18.984375 -8.816406 19.421875 -9.234375 C 19.578125 -9.359375 19.726562 -9.5 19.875 -9.65625 C 23.007812 -12.175781 26.222656 -14.582031 29.515625 -16.875 C 29.984375 -17.1875 30.46875 -17.492188 30.96875 -17.796875 C 31.457031 -18.109375 31.957031 -18.226562 32.46875 -18.15625 C 32.769531 -18.132812 32.96875 -18.015625 33.0625 -17.796875 C 33.113281 -17.617188 33.085938 -17.472656 32.984375 -17.359375 C 32.890625 -17.253906 32.78125 -17.15625 32.65625 -17.0625 C 32.363281 -16.8125 32.066406 -16.5625 31.765625 -16.3125 C 31.472656 -16.113281 31.191406 -15.890625 30.921875 -15.640625 C 30.304688 -15.171875 29.707031 -14.691406 29.125 -14.203125 C 25.882812 -11.597656 22.648438 -8.984375 19.421875 -6.359375 C 18.929688 -5.972656 18.648438 -5.664062 18.578125 -5.4375 C 18.503906 -5.21875 18.554688 -4.914062 18.734375 -4.53125 C 19.265625 -3.21875 19.960938 -2.046875 20.828125 -1.015625 C 21.515625 -0.203125 22.375 0.410156 23.40625 0.828125 C 24.832031 1.316406 26.117188 1.3125 27.265625 0.8125 C 28.421875 0.320312 29.414062 -0.484375 30.25 -1.609375 C 31.09375 -2.734375 31.765625 -4.003906 32.265625 -5.421875 C 32.765625 -6.835938 33.078125 -8.210938 33.203125 -9.546875 C 33.328125 -10.890625 33.242188 -12.015625 32.953125 -12.921875 C 32.953125 -13.046875 32.941406 -13.15625 32.921875 -13.25 C 32.867188 -13.394531 32.84375 -13.546875 32.84375 -13.703125 C 32.84375 -13.867188 32.894531 -14.007812 33 -14.125 C 33.113281 -14.238281 33.253906 -14.316406 33.421875 -14.359375 C 34.484375 -14.660156 35.175781 -14.414062 35.5 -13.625 Z M 20.390625 -27.78125 C 19.921875 -26.9375 19.53125 -26.085938 19.21875 -25.234375 C 18.914062 -24.390625 18.640625 -23.539062 18.390625 -22.6875 C 18.316406 -22.375 18.242188 -22.046875 18.171875 -21.703125 C 17.972656 -20.835938 17.800781 -19.960938 17.65625 -19.078125 C 17.601562 -18.878906 17.648438 -18.75 17.796875 -18.6875 C 17.953125 -18.625 18.125 -18.65625 18.3125 -18.78125 C 19.5 -19.59375 20.65625 -20.4375 21.78125 -21.3125 C 22.90625 -22.1875 23.988281 -23.132812 25.03125 -24.15625 C 25.789062 -24.925781 26.414062 -25.753906 26.90625 -26.640625 C 28.007812 -28.953125 27.601562 -30.535156 25.6875 -31.390625 C 24.757812 -31.785156 23.789062 -31.578125 22.78125 -30.765625 C 22.257812 -30.347656 21.804688 -29.890625 21.421875 -29.390625 C 21.046875 -28.890625 20.703125 -28.351562 20.390625 -27.78125 Z M 14.4375 -5.140625 C 14.925781 -5.566406 15.085938 -6.023438 14.921875 -6.515625 C 14.472656 -8.253906 14.21875 -10.082031 14.15625 -12 C 14.15625 -12.09375 14.128906 -12.210938 14.078125 -12.359375 C 14.023438 -12.460938 13.988281 -12.585938 13.96875 -12.734375 C 12.476562 -11.609375 11.097656 -10.445312 9.828125 -9.25 C 8.554688 -8.0625 7.378906 -6.804688 6.296875 -5.484375 C 5.296875 -4.253906 4.617188 -2.953125 4.265625 -1.578125 C 4.097656 -0.835938 4.191406 -0.191406 4.546875 0.359375 C 4.929688 1.035156 5.601562 1.140625 6.5625 0.671875 C 7.082031 0.460938 7.578125 0.191406 8.046875 -0.140625 C 9.890625 -1.410156 11.671875 -2.78125 13.390625 -4.25 C 13.722656 -4.550781 14.070312 -4.847656 14.4375 -5.140625 Z M 14.4375 -5.140625 "/></g></g></g><g fill="#ffffff" fill-opacity="1"><g transform="translate(69.878236, 93.749997)"><g><path d="M 76.140625 -36.65625 C 76.710938 -36.738281 77.148438 -36.625 77.453125 -36.3125 C 77.765625 -36.007812 77.859375 -35.582031 77.734375 -35.03125 C 77.492188 -34.082031 77.160156 -33.148438 76.734375 -32.234375 C 75.234375 -28.773438 73.613281 -25.375 71.875 -22.03125 C 68.1875 -15.03125 64.328125 -8.109375 60.296875 -1.265625 C 60.109375 -0.984375 59.925781 -0.679688 59.75 -0.359375 C 59.675781 -0.234375 59.601562 -0.109375 59.53125 0.015625 C 59.382812 0.160156 59.273438 0.3125 59.203125 0.46875 C 59.128906 0.632812 59.125 0.789062 59.1875 0.9375 C 59.3125 1.125 59.460938 1.21875 59.640625 1.21875 C 59.828125 1.21875 60.023438 1.1875 60.234375 1.125 C 60.398438 1.039062 60.570312 1 60.75 1 C 60.894531 0.976562 61.050781 0.96875 61.21875 0.96875 C 61.488281 0.925781 61.757812 0.910156 62.03125 0.921875 C 62.300781 0.929688 62.5625 1.019531 62.8125 1.1875 C 62.914062 1.238281 62.992188 1.300781 63.046875 1.375 C 63.109375 1.445312 63.113281 1.554688 63.0625 1.703125 C 63.039062 1.804688 62.992188 1.898438 62.921875 1.984375 C 62.847656 2.066406 62.757812 2.097656 62.65625 2.078125 C 61.65625 1.992188 60.660156 2.03125 59.671875 2.1875 C 58.515625 2.363281 57.628906 2.976562 57.015625 4.03125 C 53.734375 9.320312 49.960938 14.238281 45.703125 18.78125 C 44.492188 20.101562 43.238281 21.363281 41.9375 22.5625 C 40.632812 23.769531 39.226562 24.867188 37.71875 25.859375 C 36.40625 26.710938 35.003906 27.394531 33.515625 27.90625 C 32.628906 28.175781 31.726562 28.3125 30.8125 28.3125 L 30.78125 28.3125 C 30.488281 28.3125 30.203125 28.300781 29.921875 28.28125 C 28.847656 28.175781 28.023438 27.796875 27.453125 27.140625 C 26.890625 26.484375 26.644531 25.625 26.71875 24.5625 C 26.84375 23.25 27.234375 22.03125 27.890625 20.90625 C 29.097656 18.800781 30.59375 16.898438 32.375 15.203125 C 35.34375 12.273438 38.5625 9.757812 42.03125 7.65625 C 45.507812 5.550781 49.253906 3.914062 53.265625 2.75 C 54.878906 2.320312 56.117188 1.375 56.984375 -0.09375 C 59.421875 -4.25 61.816406 -8.421875 64.171875 -12.609375 C 66.523438 -16.804688 68.785156 -21.050781 70.953125 -25.34375 C 71.648438 -26.695312 72.328125 -28.070312 72.984375 -29.46875 C 73.109375 -29.769531 73.242188 -30.066406 73.390625 -30.359375 C 73.734375 -31.078125 73.898438 -31.523438 73.890625 -31.703125 C 73.878906 -31.890625 73.753906 -31.898438 73.515625 -31.734375 C 73.285156 -31.578125 73.007812 -31.335938 72.6875 -31.015625 C 72.363281 -30.703125 72.070312 -30.398438 71.8125 -30.109375 C 71.601562 -29.910156 71.453125 -29.75 71.359375 -29.625 C 64.921875 -23.03125 58.015625 -16.957031 50.640625 -11.40625 C 49.148438 -10.257812 47.601562 -9.1875 46 -8.1875 C 44.40625 -7.195312 42.734375 -6.304688 40.984375 -5.515625 C 39.992188 -5.097656 38.984375 -4.765625 37.953125 -4.515625 C 36.929688 -4.273438 35.867188 -4.164062 34.765625 -4.1875 C 32.128906 -4.3125 30.75 -5.703125 30.625 -8.359375 C 30.582031 -9.878906 30.804688 -11.351562 31.296875 -12.78125 C 32.441406 -16.382812 33.890625 -19.859375 35.640625 -23.203125 C 37.285156 -26.328125 38.941406 -29.425781 40.609375 -32.5 C 41.222656 -33.601562 41.828125 -34.722656 42.421875 -35.859375 C 44.160156 -38.953125 45.734375 -42.144531 47.140625 -45.4375 C 47.535156 -46.34375 47.867188 -47.273438 48.140625 -48.234375 C 48.335938 -48.992188 48.4375 -49.769531 48.4375 -50.5625 C 48.4375 -51.6875 47.875 -52.40625 46.75 -52.71875 C 46.09375 -52.925781 45.453125 -53.03125 44.828125 -53.03125 C 44.203125 -53.03125 43.5625 -52.976562 42.90625 -52.875 C 39.851562 -52.4375 36.90625 -51.640625 34.0625 -50.484375 C 24.820312 -46.941406 16.585938 -41.816406 9.359375 -35.109375 C 7.660156 -33.535156 6.132812 -31.832031 4.78125 -30 C 3.4375 -28.175781 2.3125 -26.207031 1.40625 -24.09375 C 0.789062 -22.695312 0.3125 -21.273438 -0.03125 -19.828125 C -0.375 -18.390625 -0.523438 -16.898438 -0.484375 -15.359375 C -0.429688 -14.078125 -0.207031 -12.851562 0.1875 -11.6875 C 0.59375 -10.519531 1.226562 -9.53125 2.09375 -8.71875 C 2.957031 -7.90625 4.09375 -7.390625 5.5 -7.171875 C 5.59375 -7.148438 5.671875 -7.097656 5.734375 -7.015625 C 5.796875 -6.929688 5.800781 -6.828125 5.75 -6.703125 C 5.726562 -6.617188 5.691406 -6.550781 5.640625 -6.5 C 5.585938 -6.457031 5.539062 -6.425781 5.5 -6.40625 C 4.582031 -6.15625 3.679688 -6.226562 2.796875 -6.625 C 1.273438 -7.289062 0.0976562 -8.238281 -0.734375 -9.46875 C -1.578125 -10.695312 -2.117188 -12.066406 -2.359375 -13.578125 C -2.609375 -15.097656 -2.617188 -16.632812 -2.390625 -18.1875 C -2.066406 -20.363281 -1.488281 -22.421875 -0.65625 -24.359375 C 0.175781 -26.296875 1.21875 -28.160156 2.46875 -29.953125 C 3.8125 -31.835938 5.300781 -33.597656 6.9375 -35.234375 C 8.582031 -36.878906 10.320312 -38.410156 12.15625 -39.828125 C 15.15625 -42.140625 18.28125 -44.242188 21.53125 -46.140625 C 24.789062 -48.046875 28.191406 -49.71875 31.734375 -51.15625 C 33.453125 -51.832031 35.195312 -52.4375 36.96875 -52.96875 C 38.738281 -53.5 40.546875 -53.882812 42.390625 -54.125 C 43.273438 -54.25 44.164062 -54.316406 45.0625 -54.328125 C 45.957031 -54.335938 46.835938 -54.234375 47.703125 -54.015625 C 50.128906 -53.398438 51.144531 -51.863281 50.75 -49.40625 C 50.457031 -47.789062 49.96875 -46.234375 49.28125 -44.734375 C 47.90625 -41.585938 46.394531 -38.515625 44.75 -35.515625 C 43.988281 -34.117188 43.222656 -32.71875 42.453125 -31.3125 C 40.910156 -28.46875 39.375 -25.609375 37.84375 -22.734375 C 36.125 -19.441406 34.710938 -16.015625 33.609375 -12.453125 C 33.421875 -11.816406 33.25 -11.164062 33.09375 -10.5 C 32.945312 -9.832031 32.898438 -9.148438 32.953125 -8.453125 C 32.992188 -7.960938 33.085938 -7.484375 33.234375 -7.015625 C 33.554688 -6.109375 34.203125 -5.632812 35.171875 -5.59375 C 35.878906 -5.539062 36.578125 -5.625 37.265625 -5.84375 C 38.585938 -6.21875 39.84375 -6.710938 41.03125 -7.328125 C 42.226562 -7.941406 43.40625 -8.625 44.5625 -9.375 C 46.875 -10.851562 49.101562 -12.441406 51.25 -14.140625 C 53.40625 -15.835938 55.53125 -17.582031 57.625 -19.375 C 63.09375 -24.070312 68.257812 -29.070312 73.125 -34.375 C 73.664062 -34.96875 74.234375 -35.519531 74.828125 -36.03125 C 75.191406 -36.382812 75.628906 -36.59375 76.140625 -36.65625 Z M 53.78125 4.90625 C 53.820312 4.863281 53.875 4.820312 53.9375 4.78125 C 54.019531 4.65625 54.085938 4.53125 54.140625 4.40625 C 54.191406 4.28125 54.164062 4.15625 54.0625 4.03125 C 53.9375 3.914062 53.800781 3.867188 53.65625 3.890625 C 53.519531 3.910156 53.378906 3.957031 53.234375 4.03125 C 53.171875 4.0625 53.109375 4.078125 53.046875 4.078125 C 52.703125 4.222656 52.351562 4.351562 52 4.46875 C 51.957031 4.488281 51.910156 4.515625 51.859375 4.546875 C 48.328125 5.890625 45.046875 7.597656 42.015625 9.671875 C 38.992188 11.753906 36.171875 14.148438 33.546875 16.859375 C 32.484375 17.921875 31.550781 19.085938 30.75 20.359375 C 30.101562 21.316406 29.609375 22.335938 29.265625 23.421875 C 29.023438 24.097656 28.988281 24.796875 29.15625 25.515625 C 29.394531 26.453125 30.066406 26.929688 31.171875 26.953125 C 32.179688 26.785156 33.207031 26.421875 34.25 25.859375 C 35.375 25.265625 36.425781 24.59375 37.40625 23.84375 C 38.394531 23.09375 39.34375 22.285156 40.25 21.421875 C 43.269531 18.578125 46.03125 15.507812 48.53125 12.21875 C 49.914062 10.394531 51.257812 8.539062 52.5625 6.65625 C 52.976562 6.082031 53.382812 5.5 53.78125 4.90625 Z M 53.78125 4.90625 "/></g></g></g></svg>